<?xml version="1.0" encoding="utf-8"?>
<!-- Generator: Adobe Illustrator 23.0.3, SVG Export Plug-In . SVG Version: 6.00 Build 0)  -->
<svg version="1.1" id="Layer_1" xmlns="http://www.w3.org/2000/svg" xmlns:xlink="http://www.w3.org/1999/xlink" x="0px" y="0px"
	 viewBox="0 0 2000 2000" style="enable-background:new 0 0 2000 2000;" xml:space="preserve">
<style type="text/css">
	.st0{opacity:0.1;}
	.st1{fill:none;}
	.st2{fill:#0A1310;}
	.st3{fill:#0071BB;}
	.st4{fill:url(#SVGID_1_);}
	.st5{fill:url(#SVGID_2_);}
	.st6{fill:url(#SVGID_3_);}
	.st7{fill:url(#SVGID_4_);}
	.st8{fill:url(#SVGID_5_);}
	.st9{fill:url(#SVGID_6_);}
	.st10{fill:url(#SVGID_7_);}
	.st11{fill:url(#SVGID_8_);}
	.st12{fill:#C0272D;}
	.st13{fill:url(#SVGID_9_);}
	.st14{fill:url(#SVGID_10_);}
	.st15{fill:#ACACAC;}
	.st16{fill:url(#SVGID_11_);}
	.st17{fill:url(#SVGID_12_);}
	.st18{fill:#343434;}
	.st19{fill:#444444;}
	.st20{fill:#89715D;}
	.st21{fill:#96775E;}
	.st22{fill:none;stroke:#96775E;stroke-miterlimit:10;}
	.st23{fill:#A18063;}
	.st24{fill:#2E2E2E;}
	.st25{fill:#3D3D3D;}
	.st26{fill:#D7B8B0;}
	.st27{fill:#E4C5BA;}
	.st28{fill:#D60715;}
	.st29{fill:#231F20;}
	.st30{fill:url(#SVGID_13_);}
	.st31{fill:url(#SVGID_14_);}
	.st32{fill:url(#SVGID_15_);}
	.st33{fill:url(#SVGID_16_);}
	.st34{fill:url(#SVGID_17_);}
	.st35{fill:url(#SVGID_18_);}
	.st36{fill:url(#SVGID_19_);}
	.st37{fill:url(#SVGID_20_);}
	.st38{fill:#F2B280;}
	.st39{opacity:0.2;fill:#231F20;}
	.st40{opacity:0.6;fill:#231F20;}
	.st41{fill:url(#SVGID_21_);}
	.st42{fill:url(#SVGID_22_);}
	.st43{fill:url(#SVGID_23_);}
	.st44{fill:url(#SVGID_24_);}
	.st45{fill:url(#SVGID_25_);}
	.st46{fill:url(#SVGID_26_);}
	.st47{fill:url(#SVGID_27_);}
	.st48{fill:url(#SVGID_28_);}
</style>
<g>
	<path class="st29" d="M1397.34,761.37l-10.97,6.36c-21.53,12.48-46.37,17.25-70.44,14.26c-12.03-1.49-23.85-4.92-34.97-10.27
		c-11.12-5.36-21.53-12.63-30.79-21.89c-9.26-9.26-16.53-19.67-21.89-30.79c-8.03-16.67-11.72-34.95-11.06-53.1
		c0.67-18.16,5.69-36.15,15.04-52.31l6.36-10.97l-92.14-92.14L828.5,828.5l-317.99,317.99l92.14,92.14l10.97-6.36
		c21.53-12.48,46.37-17.24,70.44-14.26c12.03,1.49,23.85,4.92,34.97,10.27c11.12,5.36,21.53,12.63,30.79,21.89
		c9.26,9.26,16.53,19.67,21.89,30.79c8.03,16.67,11.72,34.94,11.06,53.1c-0.67,18.16-5.69,36.15-15.05,52.31l-6.36,10.97
		l92.14,92.14l317.99-317.99l317.99-317.99L1397.34,761.37z M853.51,1442.82l-51.3-51.3c11.69-25.07,15.86-52.74,12.52-79.64
		c-1.93-15.53-6.35-30.83-13.29-45.23c-6.93-14.4-16.38-27.9-28.28-39.8c-11.9-11.9-25.41-21.35-39.8-28.29
		c-21.6-10.4-45.21-15.16-68.63-14.31c-19.25,0.71-38.41,5.22-56.24,13.54l-51.3-51.3l294.65-294.65l160.46-160.46
		c0.52,0.7,1.08,1.38,1.72,2.01c7.27,7.27,19.06,7.27,26.33,0c7.27-7.27,7.27-19.06,0-26.33c-0.64-0.64-1.32-1.19-2.01-1.72
		l108.15-108.15l51.3,51.3c-11.69,25.07-15.86,52.74-12.52,79.65c1.93,15.53,6.35,30.83,13.29,45.23
		c6.93,14.4,16.38,27.9,28.29,39.8c11.9,11.9,25.4,21.35,39.8,28.28c21.6,10.4,45.2,15.16,68.63,14.3
		c19.25-0.71,38.41-5.22,56.24-13.54l51.3,51.3l-108.15,108.15c-0.52-0.7-1.08-1.38-1.72-2.01c-7.27-7.27-19.06-7.27-26.33,0
		c-7.27,7.27-7.27,19.06,0,26.33c0.64,0.63,1.32,1.19,2.01,1.72l-160.46,160.46L853.51,1442.82z"/>
	<path class="st29" d="M1186.64,813.36c-7.27-7.27-19.06-7.27-26.33,0c-7.27,7.27-7.27,19.06,0,26.33s19.06,7.27,26.33,0
		C1193.92,832.42,1193.92,820.63,1186.64,813.36z"/>
	<path class="st29" d="M1223.22,849.93c-7.27-7.27-19.06-7.27-26.33,0c-7.27,7.27-7.27,19.06,0,26.33c7.27,7.27,19.06,7.27,26.33,0
		C1230.49,868.99,1230.49,857.2,1223.22,849.93z"/>
	<path class="st29" d="M1259.79,886.51c-7.27-7.27-19.06-7.27-26.33,0c-7.27,7.27-7.27,19.06,0,26.33c7.27,7.27,19.06,7.27,26.33,0
		C1267.06,905.57,1267.07,893.78,1259.79,886.51z"/>
	<path class="st29" d="M1296.37,923.08c-7.27-7.27-19.06-7.27-26.33,0c-7.27,7.27-7.27,19.06,0,26.33c7.27,7.27,19.06,7.27,26.33,0
		C1303.64,942.14,1303.64,930.35,1296.37,923.08z"/>
	<path class="st29" d="M1150.07,776.78c-7.27-7.27-19.06-7.27-26.33,0c-7.27,7.27-7.27,19.06,0,26.33c7.27,7.27,19.06,7.27,26.33,0
		C1157.34,795.84,1157.34,784.05,1150.07,776.78z"/>
	<path class="st29" d="M1113.5,740.21c-7.27-7.27-19.06-7.27-26.33,0c-7.27,7.27-7.27,19.06,0,26.33c7.27,7.27,19.06,7.27,26.33,0
		C1120.77,759.27,1120.77,747.48,1113.5,740.21z"/>
	<path class="st29" d="M1076.92,703.63c-7.27-7.27-19.06-7.27-26.33,0c-7.27,7.27-7.27,19.06,0,26.33c7.27,7.27,19.06,7.27,26.33,0
		C1084.19,722.69,1084.19,710.9,1076.92,703.63z"/>
</g>
</svg>
