<svg version="1.1" id="Layer_1" xmlns="http://www.w3.org/2000/svg" x="0" y="0" viewBox="0 0 168 168"
     xml:space="preserve"><style>.st1{fill:#fff}</style>
    <path d="M100.3 0L.4 99.9v67.7L168 0h-67.7z" opacity=".8" fill="#aca9a9"/>
    <g id="Layer_2"><path class="st1" d="M51.6 83c-1.3-1.4-2.2-2.7-2.7-4-.4-1-.5-2-.6-3s.2-2 .5-2.9c.5-1.2 1.3-2.3 2.3-3.3 2-1.9 4.1-2.9 6.5-2.8 2.4.1 4.6 1.2 6.7 3.3 2.1 2.1 3.2 4.4 3.2 6.7 0 2.4-.9 4.5-2.9 6.4-2 1.9-4.1 2.9-6.5 2.8-2.2 0-4.4-1.1-6.5-3.2zm2.7-2.8c1.5 1.5 2.9 2.3 4.4 2.4 1.5.1 2.7-.4 3.8-1.4s1.6-2.3 1.5-3.7c-.1-1.4-.9-2.9-2.4-4.5-1.5-1.5-2.9-2.3-4.3-2.4-1.4-.1-2.7.4-3.8 1.5s-1.6 2.3-1.6 3.8c.1 1.3.9 2.8 2.4 4.3zM73.1 74.8L60.2 61.6l2.7-2.6 10.7 10.9 6.7-6.6 2.2 2.2-9.4 9.3zM71.3 50.5l4.9-4.8c1.1-1.1 2-1.8 2.8-2.2 1-.5 2.1-.8 3.2-.7 1.1 0 2.3.3 3.4.9 1.1.6 2.3 1.5 3.5 2.7 1.1 1.1 1.9 2.2 2.4 3.2.6 1.3.9 2.5.9 3.7 0 .9-.3 1.9-.8 2.9-.4.8-1.1 1.6-2.1 2.6l-5 5-13.2-13.3zm4.9-.4l8.6 8.8 2-2c.7-.7 1.2-1.3 1.5-1.7.3-.5.5-1.1.5-1.6s-.2-1.2-.6-2c-.4-.8-1.1-1.7-2.1-2.7-1-1-1.9-1.7-2.6-2.1-.7-.4-1.4-.6-2-.5-.6 0-1.2.2-1.9.6-.5.3-1.2 1-2.3 2l-1.1 1.2z"/></g></svg>