<?xml version="1.0" encoding="utf-8"?>
<!-- Generator: Adobe Illustrator 23.0.3, SVG Export Plug-In . SVG Version: 6.00 Build 0)  -->
<svg version="1.1" id="Layer_1" xmlns="http://www.w3.org/2000/svg" xmlns:xlink="http://www.w3.org/1999/xlink" x="0px" y="0px"
	 viewBox="0 0 2000 2000" style="enable-background:new 0 0 2000 2000;" xml:space="preserve">
<style type="text/css">
	.st0{opacity:0.1;}
	.st1{fill:none;}
	.st2{fill:#0A1310;}
	.st3{fill:#0071BB;}
	.st4{fill:url(#SVGID_1_);}
	.st5{fill:url(#SVGID_2_);}
	.st6{fill:url(#SVGID_3_);}
	.st7{fill:url(#SVGID_4_);}
	.st8{fill:url(#SVGID_5_);}
	.st9{fill:url(#SVGID_6_);}
	.st10{fill:url(#SVGID_7_);}
	.st11{fill:url(#SVGID_8_);}
	.st12{fill:#C0272D;}
	.st13{fill:url(#SVGID_9_);}
	.st14{fill:url(#SVGID_10_);}
	.st15{fill:#ACACAC;}
	.st16{fill:url(#SVGID_11_);}
	.st17{fill:url(#SVGID_12_);}
	.st18{fill:#343434;}
	.st19{fill:#444444;}
	.st20{fill:#89715D;}
	.st21{fill:#96775E;}
	.st22{fill:none;stroke:#96775E;stroke-miterlimit:10;}
	.st23{fill:#A18063;}
	.st24{fill:#2E2E2E;}
	.st25{fill:#3D3D3D;}
	.st26{fill:#D7B8B0;}
	.st27{fill:#E4C5BA;}
	.st28{fill:#D60715;}
	.st29{fill:#231F20;}
	.st30{fill:url(#SVGID_13_);}
	.st31{fill:url(#SVGID_14_);}
	.st32{fill:url(#SVGID_15_);}
	.st33{fill:url(#SVGID_16_);}
	.st34{fill:url(#SVGID_17_);}
	.st35{fill:url(#SVGID_18_);}
	.st36{fill:url(#SVGID_19_);}
	.st37{fill:url(#SVGID_20_);}
	.st38{fill:#F2B280;}
	.st39{opacity:0.2;fill:#231F20;}
	.st40{opacity:0.6;fill:#231F20;}
	.st41{fill:url(#SVGID_21_);}
	.st42{fill:url(#SVGID_22_);}
	.st43{fill:url(#SVGID_23_);}
	.st44{fill:url(#SVGID_24_);}
	.st45{fill:url(#SVGID_25_);}
	.st46{fill:url(#SVGID_26_);}
	.st47{fill:url(#SVGID_27_);}
	.st48{fill:url(#SVGID_28_);}
</style>
<g>
	<g>
		<path class="st29" d="M1397.34,761.37l-10.97,6.36c-21.53,12.48-46.37,17.25-70.44,14.26c-12.03-1.49-23.85-4.92-34.97-10.27
			c-11.12-5.36-21.53-12.63-30.79-21.89c-9.26-9.26-16.53-19.67-21.89-30.79c-8.03-16.67-11.72-34.95-11.06-53.1
			c0.67-18.16,5.69-36.15,15.04-52.31l6.36-10.97l-92.14-92.14L828.5,828.5l-317.99,317.99l92.14,92.14l10.97-6.36
			c21.53-12.48,46.37-17.24,70.44-14.26c12.03,1.49,23.85,4.92,34.97,10.27c11.12,5.36,21.53,12.63,30.79,21.89
			c9.26,9.26,16.53,19.67,21.89,30.79c8.03,16.67,11.72,34.94,11.06,53.1c-0.67,18.16-5.69,36.15-15.05,52.31l-6.36,10.97
			l92.14,92.14l317.99-317.99l317.99-317.99L1397.34,761.37z M853.51,1442.82l-51.3-51.3c11.69-25.07,15.86-52.74,12.52-79.64
			c-1.93-15.53-6.35-30.83-13.29-45.23c-6.93-14.4-16.38-27.9-28.28-39.8c-11.9-11.9-25.41-21.35-39.8-28.29
			c-21.6-10.4-45.21-15.16-68.63-14.31c-19.25,0.71-38.41,5.22-56.24,13.54l-51.3-51.3l294.65-294.65l160.46-160.46
			c0.52,0.7,1.08,1.38,1.72,2.01c7.27,7.27,19.06,7.27,26.33,0c7.27-7.27,7.27-19.06,0-26.33c-0.64-0.64-1.32-1.19-2.01-1.72
			l108.15-108.15l51.3,51.3c-11.69,25.07-15.86,52.74-12.52,79.65c1.93,15.53,6.35,30.83,13.29,45.23
			c6.93,14.4,16.38,27.9,28.29,39.8c11.9,11.9,25.4,21.35,39.8,28.28c21.6,10.4,45.2,15.16,68.63,14.3
			c19.25-0.71,38.41-5.22,56.24-13.54l51.3,51.3l-108.15,108.15c-0.52-0.7-1.08-1.38-1.72-2.01c-7.27-7.27-19.06-7.27-26.33,0
			c-7.27,7.27-7.27,19.06,0,26.33c0.64,0.63,1.32,1.19,2.01,1.72l-160.46,160.46L853.51,1442.82z"/>
		<path class="st29" d="M1186.64,813.36c-7.27-7.27-19.06-7.27-26.33,0c-7.27,7.27-7.27,19.06,0,26.33s19.06,7.27,26.33,0
			C1193.92,832.42,1193.92,820.63,1186.64,813.36z"/>
		<path class="st29" d="M1223.22,849.93c-7.27-7.27-19.06-7.27-26.33,0c-7.27,7.27-7.27,19.06,0,26.33c7.27,7.27,19.06,7.27,26.33,0
			C1230.49,868.99,1230.49,857.2,1223.22,849.93z"/>
		<path class="st29" d="M1259.79,886.51c-7.27-7.27-19.06-7.27-26.33,0c-7.27,7.27-7.27,19.06,0,26.33c7.27,7.27,19.06,7.27,26.33,0
			C1267.06,905.57,1267.07,893.78,1259.79,886.51z"/>
		<path class="st29" d="M1296.37,923.08c-7.27-7.27-19.06-7.27-26.33,0c-7.27,7.27-7.27,19.06,0,26.33c7.27,7.27,19.06,7.27,26.33,0
			C1303.64,942.14,1303.64,930.35,1296.37,923.08z"/>
		<path class="st29" d="M1150.07,776.78c-7.27-7.27-19.06-7.27-26.33,0c-7.27,7.27-7.27,19.06,0,26.33c7.27,7.27,19.06,7.27,26.33,0
			C1157.34,795.84,1157.34,784.05,1150.07,776.78z"/>
		<path class="st29" d="M1113.5,740.21c-7.27-7.27-19.06-7.27-26.33,0c-7.27,7.27-7.27,19.06,0,26.33c7.27,7.27,19.06,7.27,26.33,0
			C1120.77,759.27,1120.77,747.48,1113.5,740.21z"/>
		<path class="st29" d="M1076.92,703.63c-7.27-7.27-19.06-7.27-26.33,0c-7.27,7.27-7.27,19.06,0,26.33c7.27,7.27,19.06,7.27,26.33,0
			C1084.19,722.69,1084.19,710.9,1076.92,703.63z"/>
	</g>
	<g>
		<g>
			<g>
				<path class="st12" d="M1014.51,1085.82c-8.84,8.84-21.03,14.29-34.51,14.3c-13.49,0-25.67-5.46-34.51-14.3
					c-8.84-8.84-14.29-21.03-14.3-34.51v-57.14h97.61v57.14C1028.81,1064.79,1023.35,1076.98,1014.51,1085.82z"/>
				<path class="st3" d="M1028.81,988.56h-97.61v-59.53c0-13.49,5.46-25.67,14.3-34.51c8.84-8.84,21.03-14.29,34.51-14.3
					c13.49,0,25.67,5.46,34.51,14.3c8.84,8.84,14.29,21.03,14.3,34.51V988.56z"/>
				<g>
					<path class="st1" d="M980,880.22c-13.49,0-25.67,5.46-34.51,14.3c-8.84,8.84-14.29,21.03-14.3,34.51v59.53h97.61v-59.53
						c0-13.49-5.46-25.67-14.3-34.51C1005.67,885.68,993.49,880.22,980,880.22z M983.44,896.05c-5.16,0-9.99,1.13-14.35,3.18
						c-4.36,2.05-8.26,5.02-11.53,8.71c-6.54,7.38-10.53,17.64-10.53,29.04v27l0,0c0,1.25-1.01,2.25-2.25,2.25
						c-1.25,0-2.25-1.01-2.25-2.25v-27c0-9.34,2.45-18.05,6.76-25.3c4.3-7.25,10.47-13.05,17.89-16.54
						c4.95-2.32,10.45-3.61,16.27-3.61c1.25,0,2.25,1.01,2.25,2.25S984.68,896.05,983.44,896.05z"/>
					<path class="st1" d="M931.19,994.17v57.14c0,13.49,5.46,25.67,14.3,34.51c8.84,8.84,21.03,14.29,34.51,14.3
						c13.49,0,25.67-5.46,34.51-14.3c8.84-8.84,14.29-21.03,14.3-34.51v-57.14H931.19z M1016.36,1045.74
						c0,9.34-2.45,18.05-6.76,25.3c-4.3,7.25-10.47,13.05-17.89,16.54c-4.95,2.32-10.45,3.61-16.27,3.61
						c-1.25,0-2.25-1.01-2.25-2.25c0-1.25,1.01-2.25,2.25-2.25c5.16,0,9.99-1.13,14.35-3.18c4.36-2.05,8.26-5.02,11.53-8.71
						c6.54-7.38,10.53-17.64,10.53-29.04v-27h0c0-1.25,1.01-2.25,2.25-2.25c1.25,0,2.25,1.01,2.25,2.25V1045.74z"/>
					<path class="st2" d="M1018.48,890.55c-9.84-9.84-23.46-15.94-38.48-15.94c-15.02,0-28.64,6.1-38.48,15.94
						c-9.84,9.84-15.94,23.46-15.94,38.48v122.28c0,15.02,6.1,28.64,15.94,38.48c3.66,3.67,7.86,6.81,12.45,9.32l6.36,2.94
						c6.11,2.37,12.74,3.68,19.68,3.68c6.41,0,12.57-1.12,18.29-3.16l6.34-2.74c5.14-2.61,9.82-6.01,13.86-10.05
						c9.84-9.84,15.94-23.46,15.94-38.48V929.03C1034.42,914.01,1028.33,900.39,1018.48,890.55z M1028.81,1051.31
						c0,13.49-5.46,25.67-14.3,34.51c-8.84,8.84-21.03,14.29-34.51,14.3c-13.49,0-25.67-5.46-34.51-14.3
						c-8.84-8.84-14.29-21.03-14.3-34.51v-57.14h97.61V1051.31z M1028.81,988.56h-97.61v-59.53c0-13.49,5.46-25.67,14.3-34.51
						c8.84-8.84,21.03-14.29,34.51-14.3c13.49,0,25.67,5.46,34.51,14.3c8.84,8.84,14.29,21.03,14.3,34.51V988.56z"/>
				</g>
			</g>
			<g>
				
					<linearGradient id="SVGID_1_" gradientUnits="userSpaceOnUse" x1="2572.8909" y1="1915.0348" x2="2632.8989" y2="1945.7778" gradientTransform="matrix(1 0 0 1 -1596.1355 -878.0917)">
					<stop  offset="0.3825" style="stop-color:#C0272D;stop-opacity:0"/>
					<stop  offset="0.4237" style="stop-color:#C22E34;stop-opacity:0.0996"/>
					<stop  offset="0.4824" style="stop-color:#C74046;stop-opacity:0.2416"/>
					<stop  offset="0.5517" style="stop-color:#D05F64;stop-opacity:0.4091"/>
					<stop  offset="0.6291" style="stop-color:#DD8A8D;stop-opacity:0.5961"/>
					<stop  offset="0.7126" style="stop-color:#EDC1C3;stop-opacity:0.7981"/>
					<stop  offset="0.7961" style="stop-color:#FFFFFF"/>
				</linearGradient>
				<path class="st4" d="M982.82,1095.85c5.71,0,11.1-1.26,15.95-3.54c7.28-3.42,13.33-9.11,17.55-16.21
					c4.22-7.11,6.62-15.65,6.62-24.8v-46.49"/>
			</g>
			<g>
				
					<linearGradient id="SVGID_2_" gradientUnits="userSpaceOnUse" x1="-1299.2627" y1="-154.9897" x2="-1239.2548" y2="-124.2467" gradientTransform="matrix(-1 0 0 -1 -313.2025 791.235)">
					<stop  offset="0.3825" style="stop-color:#0071BB;stop-opacity:0"/>
					<stop  offset="0.4194" style="stop-color:#0775BD;stop-opacity:0.0892"/>
					<stop  offset="0.472" style="stop-color:#197FC2;stop-opacity:0.2165"/>
					<stop  offset="0.5342" style="stop-color:#3890CA;stop-opacity:0.3666"/>
					<stop  offset="0.6035" style="stop-color:#63A8D5;stop-opacity:0.5343"/>
					<stop  offset="0.6788" style="stop-color:#9AC7E4;stop-opacity:0.7163"/>
					<stop  offset="0.7579" style="stop-color:#DCECF6;stop-opacity:0.9076"/>
					<stop  offset="0.7961" style="stop-color:#FFFFFF"/>
				</linearGradient>
				<path class="st5" d="M980,887.32c-5.71,0-11.1,1.26-15.95,3.54c-7.28,3.42-13.33,9.11-17.55,16.21
					c-4.22,7.11-6.62,15.65-6.62,24.8v46.49"/>
			</g>
		</g>
		<g>
			<g>
				<path class="st15" d="M979.49,1115.47c1.46,0,2.65,1.19,2.65,2.65v16.64l39.72,21.25v-39.68l-22.99-13.87
					c-5.39,1.92-11.2,2.98-17.25,2.98c-6.54,0-12.8-1.24-18.56-3.47c-0.21,0.23-0.46,0.42-0.76,0.57l-29.04,14.15v37.83L966,1139.1
					c0.71-0.33,1.49-0.32,2.16-0.03l8.68-4.46v-16.49C976.84,1116.66,978.03,1115.47,979.49,1115.47z"/>
				<path class="st2" d="M1025.88,1112.57l-21.03-12.69c2.58-1.31,5.03-2.84,7.34-4.54h-10.06c-6.17,3.08-13.13,4.81-20.5,4.81
					c-7.37,0-14.35,0.34-20.52-2.74l-10.06-2.07c1.91,1.42,3.92,2.71,6.02,3.86l-27.61,13.45c-0.91,0.44-1.49,1.37-1.49,2.38v43.66
					c0,0.9,0.47,1.75,1.23,2.24c0.76,0.48,1.73,0.54,2.55,0.16l36.51-17.19c1.32-0.62,1.89-2.2,1.27-3.52
					c-0.29-0.61-0.79-1.05-1.36-1.3c-0.67-0.29-1.45-0.3-2.16,0.03l-32.74,15.42v-37.83l29.04-14.15c0.3-0.14,0.55-0.34,0.76-0.57
					c5.76,2.24,12.02,3.47,18.56,3.47c6.05,0,11.85-1.06,17.25-2.98l22.99,13.87v39.68l-39.72-21.25v-16.64
					c0-1.46-1.19-2.65-2.65-2.65c-1.46,0-2.65,1.19-2.65,2.65v44.63c0,1.46,1.19,2.65,2.65,2.65c1.46,0,2.65-1.19,2.65-2.65v-21.98
					l41.12,22c0.82,0.44,1.81,0.41,2.61-0.06c0.8-0.48,1.29-1.34,1.29-2.27v-45.59C1027.16,1113.9,1026.67,1113.05,1025.88,1112.57z
					"/>
			</g>
		</g>
	</g>
</g>
</svg>
