<?xml version="1.0" encoding="utf-8"?>
<!-- Generator: Adobe Illustrator 22.1.0, SVG Export Plug-In . SVG Version: 6.00 Build 0)  -->
<svg version="1.1" id="Layer_1" xmlns="http://www.w3.org/2000/svg" xmlns:xlink="http://www.w3.org/1999/xlink" x="0px" y="0px"
	 viewBox="0 0 2000 2000" style="enable-background:new 0 0 2000 2000;" xml:space="preserve">
<style type="text/css">
	.st0{fill:none;}
	.st1{fill:#0A1310;}
	.st2{fill:#0071BB;}
	.st3{fill:url(#SVGID_1_);}
	.st4{fill:url(#SVGID_2_);}
	.st5{fill:#343434;}
	.st6{fill:#444444;}
	.st7{fill:#89715D;}
	.st8{fill:#96775E;}
	.st9{fill:none;stroke:#96775E;stroke-miterlimit:10;}
	.st10{fill:#A18063;}
	.st11{fill:#2E2E2E;}
	.st12{fill:#3D3D3D;}
	.st13{fill:#D7B8B0;}
	.st14{fill:#E4C5BA;}
	.st15{fill:#C0272D;}
	.st16{fill:#397f49;}
</style>
<circle class="st2" cx="768.4" cy="789.9" r="53.5"/>
<circle class="st2" cx="739.7" cy="1087.6" r="53.5"/>
<circle class="st2" cx="977.4" cy="1234.3" r="53.5"/>
<path class="st2" d="M1211,1074c0.9-2.7,2.4-5,4.5-7c2-2.1,4.3-3.6,7-4.5c2.6-1.4,5.4-2,8.4-1.9h1.2c1.3,0,2.6,0.1,3.9,0.4
	c1.4-4.7,2.1-9.7,2.1-14.8c0-29.5-23.9-53.5-53.5-53.5c-25.6,0-46.9,18-52.2,42c5.3-1.2,10.9-0.5,15.2,2.6
	c12.4,8.9,24.5,18.3,37.2,26.7c6.1,4,12.4,7.8,18.8,11.2c1.9,1,3.9,2,5.9,2.9C1209.8,1076.6,1210.3,1075.3,1211,1074z"/>
<path class="st2" d="M1086.1,1084.9c-1.6,2.4-3.6,4.2-6.2,5.6c-2.5,1.5-5.1,2.4-8,2.5c-2.9,0.6-5.7,0.5-8.6-0.4l-1.2-0.3
	c-1.3-0.3-2.5-0.8-3.6-1.3c-2.5,4.2-4.5,8.8-5.9,13.7c-7.7,28.5,9.1,57.9,37.6,65.6c24.7,6.7,50-5.1,61.4-26.8
	c-5.4-0.3-10.6-2.3-13.9-6.5c-9.6-11.8-18.8-24-28.9-35.5c-4.8-5.5-9.9-10.8-15.2-15.8c-1.6-1.5-3.2-2.9-4.9-4.4
	C1087.9,1082.7,1087.1,1083.8,1086.1,1084.9z"/>
<circle class="st15" cx="805.7" cy="956.9" r="53.5"/>
<circle class="st15" cx="899.5" cy="1216.6" r="53.5"/>
<circle class="st15" cx="1067.9" cy="1212.7" r="53.5"/>
<path class="st15" d="M974.6,1186.5c2.6-1.4,5.4-2,8.4-1.9h1.7c3.9,0,7.6,1,11,3c0.8,0.6,1.6,1.3,2.5,1.9c4.4-7.8,7-16.8,7-26.4
	c0-29.5-23.9-53.5-53.5-53.5c-25.6,0-46.9,18-52.2,42c5.3-1.2,10.9-0.5,15.2,2.6c12.4,8.9,24.5,18.3,37.2,26.7
	c5.3,3.5,10.6,6.7,16.2,9.8C969.9,1188.7,972.1,1187.3,974.6,1186.5z"/>
<path class="st15" d="M1275,1142.8c2.6-1.4,5.4-2,8.4-1.9h1.7c3.9,0,7.6,1,11,3c0.8,0.6,1.6,1.3,2.5,1.9c4.4-7.8,7-16.8,7-26.4
	c0-29.5-23.9-53.5-53.5-53.5c-25.6,0-46.9,18-52.2,42c5.3-1.2,10.9-0.5,15.2,2.6c12.4,8.9,24.5,18.3,37.2,26.7
	c5.3,3.5,10.6,6.7,16.2,9.8C1270.2,1145,1272.4,1143.6,1275,1142.8z"/>
<path class="st15" d="M1214.7,1200.2c0,11.2-3.4,21.6-9.3,30.2c-9.6,14.1-25.8,23.3-44.1,23.3c-29.5,0-53.5-23.9-53.5-53.5
	c0-18.5,9.4-34.8,23.6-44.4c8.5-5.7,18.8-9.1,29.8-9.1c2.9,0,5.6,0.2,8.4,0.7c2.9,2.9,5.8,5.9,8.7,8.8c11.9,12,23.8,24,35.8,36
	C1214.5,1194.8,1214.7,1197.5,1214.7,1200.2z"/>
<g class="st16">
	<path d="M535.7,948.7c17.3,0,18,0.8,18.3,16.6c1.1,71.3,20.8,137.5,55.4,199.5c2.5,4.4,8.5,9.4,4,14.4
		c-5.9,6.5-13.8,11.5-22.5,13.5c-5,1.1-6.4-4.8-8.4-8.3c-26.4-45.9-44.6-94.7-54.5-146.8c-4.9-25.8-6.6-51.9-8.1-78.1
		C519.2,945.4,529.3,949.6,535.7,948.7z"/>
	<path d="M1476.7,886.1c1,18.7-0.5,19.8-17.9,21.1c-10.3,0.7-13.8-3.5-15-13.9c-6.6-57.8-24.4-112-52.7-162.8
		c-2.6-4.7-9.2-9.9-4-15.4c6-6.4,14-10.9,22.5-13.7c3.4-1.1,4.8,3.2,6.3,5.8c27.6,47.1,45.8,97.6,56.3,151
		C1474.3,869.1,1475.8,880.2,1476.7,886.1z"/>
	<path d="M525,877.3c3.4-20.7,6.7-38.1,11.7-55.2c1.7-5.9,5.1-8.4,11.2-6.3c2.2,0.7,4.5,1.2,6.7,1.9c15.8,4.7,15.6,4.6,12,20.6
		c-2.9,12.8-5.9,25.6-7.7,38.5c-1.2,8.3-4,12-12.7,10c-3.7-0.9-7.7-0.6-11.5-1.1C528.2,884.7,523.7,881.9,525,877.3z"/>
	<path d="M1438.3,1066c6.3,1.8,12.6,3.5,18.8,5.5c4.4,1.4,5.8,4.7,4.7,9.1c-4.5,17.5-10.9,34.4-17.8,51.1c-2,4.8-5.4,6.2-10.2,3.7
		c-0.3-0.2-0.7-0.3-1.1-0.5c-26.8-11.4-21.3-8.7-13.9-29.9c3.7-10.5,7.3-21.1,10.7-31.7C1430.9,1069.1,1432.5,1065.4,1438.3,1066z"
		/>
	<path d="M1479.2,989.3c-0.9,6.2-2.4,17.6-4,29.1c-1,7.2-4.7,10.1-12,8.1c-4.4-1.2-9.1-1.6-13.6-2.6c-5.9-1.4-7.8-5.1-7-11.2
		c1.6-12.2,3.1-24.5,3.8-36.7c0.5-7.7,3.6-11.5,11.4-11.1c0.8,0,1.5,0,2.3,0C1478.9,964.5,1479.5,965.1,1479.2,989.3z"/>
	<path d="M603.6,741.2c-5.7,11.8-11.3,25.4-18.9,37.7c-3.4,5.5-9.9,0.2-14.7-1.5c-16.6-6.1-16.6-6.2-9.5-22.6
		c2.9-6.7,6-13.3,9.2-19.9c7.2-14.4,7.3-14.4,21.2-7c3.1,1.6,6,3.3,9,5.1C602.5,734.5,604,736.6,603.6,741.2z"/>
</g>
<path class="st16" d="M1449,1323.5c-37.2-38.2-75.1-75.7-112.7-113.6c-17.2-17.3-14-13.6-3-29.9c60.9-90.4,84.4-189.3,67.5-297.3
	c-9.7-62.1-33.2-118.8-69.4-170.1c-6.3-8.9-7.2-14.6,1.6-22.2c11.6-10.1,22.1-21.5,32.9-32.6c5.5-5.7,11.8-9.1,19.8-10.9
	c4.2-0.9,8.2-2.3,12.2-4c30.7-9.2,53.1-37.7,53.1-71.4c0-41.2-33.4-74.5-74.5-74.5c-35.9,0-65.9,25.4-73,59.1
	c-5.3,16.3-14.7,28.1-26.6,39.2c-5.9,5.5-11.5,11.4-17.2,17.2c-12.3,12.2-12.2,12.1-26.3,2.5c-88.8-60.3-186.6-85-292.6-68.7
	C824.9,564,733.1,623.1,666.3,719.1c-61.4,88.3-82.9,186.6-66.6,292.9c9.7,63,33.6,120.3,70.7,171.9c6.8,9.4,5.9,15-2.2,22.2
	c-10.9,9.8-20.9,20.6-31.2,31.1c-28.6,28.8-57.5,57.2-85.6,86.5c-41.7,43.4-41.2,109.3,0.7,148.7c22.5,21.1,49.7,30.5,80.3,30.5
	c122.5,0,245,0,367.5,0c122.1,0,244.2,0,366.3,0.1c11.3,0,22.4-1.1,33.3-3.8C1479.8,1479.3,1507,1383.3,1449,1323.5z M1370.2,899.9
	c2,15.8,1.9,31.5,2.3,47.4c1.1,78.1-21.5,149-65.8,213.1c-3.9,5.6-7.4,13-15.6,4.1l-112.8-113.1c-1-0.9-2-1.9-2.9-2.9l-0.2-0.2
	l-74.4-74.6l-0.1-0.1c-10.5-9.9-9.8-23-9.9-36.3c0-4.7,3.4-7.6,6.4-10.6c64.4-64.5,129-128.8,193.2-193.5c7.4-7.5,11.4-6,16.8,1.8
	C1341.2,785,1362.6,839.7,1370.2,899.9z M1376.4,522.2c27.2,0,49.2,22.1,49.2,49.2c0,27.2-22.1,49.2-49.2,49.2
	c-27.2,0-49.2-22-49.2-49.2C1327.1,544.3,1349.2,522.2,1376.4,522.2z M1296.8,622.5c10.8-10.8,10.8-10.8,20.7,0.1
	c1.3,1.4,2.6,2.9,3.9,4.2c14.2,14.1,14.2,14.1,0.2,28c-94.5,94.4-188.9,188.9-283.4,283.4c-5.4,5.4-10.4,11.8-19,10.5
	c-10.5,0.8-16.2-5.2-20.4-13.1c-4.8-9,0.5-15.5,6.4-21.5c45.2-45.4,90.6-90.7,135.9-136C1193.1,726.1,1244.9,674.3,1296.8,622.5z
	 M1205.4,1230.3l10.2,10.3c5.1,4.5,4.1,8.7-3.8,14.2c-45.1,31.3-94.6,52.1-148.9,60.3c-97.4,14.8-188.1-2.5-270.6-57.9
	c-14.1-9.4-14.1-9.6-1.9-21.7c1.5-1.5,3-2.9,4.5-4.4l179.4-182.5c0.6-0.6,1.1-1.2,1.7-1.7l0,0c10.1-9.6,22.3-8.6,34.8-8.9
	c3.7-0.1,6.3,2.6,8.8,5.1c9.6,9.6,19.1,19.3,28.7,28.9l1.2,1.2c3.3,3.3,6.7,6.7,10.1,10c0.8,0.8,1.4,1.5,2,2.2l36.5,36.7
	c0.2,0.2,0.3,0.3,0.5,0.5c3.3,3.2,6.5,6.5,9.8,9.8c1.5,1.5,2.8,2.8,3.9,4l0.2,0.2l19,19.1L1205.4,1230.3z M1232,1281.2
	c14.1-9.6,14-9.7,26.3,2.7c31.6,31.8,63.2,63.5,94.8,95.3c2.7,2.7,5.4,5.5,7.9,8.5c2.6,3.3,2.1,5.8-2.6,6c-3.5,0.2-6.9,0.1-10.4,0.1
	h-347.6c-115.9,0-231.8,0-347.7,0c-3.5,0-7,0.1-10.4-0.1c-4.6-0.2-5.3-2.6-2.7-6c1.9-2.4,4.1-4.6,6.2-6.8
	c32.9-33.2,66.2-66.1,98.6-99.7c7.9-8.2,13.3-8.1,22.3-1.7c58.2,41.5,123.4,65.7,194.2,72.3C1059.4,1361,1150.1,1337,1232,1281.2z
	 M1012.4,1003.6c-25,4.8-48.8-4.4-61-23.6c-12-19-10.6-51,3-69.1c1.9-2.4,3.9-4.9,6.2-6.8c3.2-2.5,7-7.7,10.6-5.4
	c4.4,2.9-0.7,7.4-1.8,11.1c-6.2,21.7-4.1,42.1,12.8,57.8c16.9,15.7,37.2,19.5,59,9.6c2.1-0.9,4.3-1.5,6.5-2.1
	c0.3-0.1,0.7,0.3,2.9,1.3C1042.5,993,1029.2,1000.5,1012.4,1003.6z M628.8,914.2c14-170.4,140.6-306.7,308.1-334.3
	c21.4-3.5,42.9-5.2,54.5-4.7c86.5-0.5,156.1,21.3,219.2,64.2c12.9,8.8,12.9,9,1.7,20.2c-62,62-124.1,124-185.9,186.1
	c-7.3,7.4-14.1,11.4-25.9,11c-40.8-1.4-82.8,35.1-89.3,75.5c-1.2,7.5-3.3,15.1-1.3,23c1.3,5.2-1.8,8.8-5.1,12.2
	c-25.3,25.6-50.7,51-75.9,76.8l-0.2,0.2c-4,4-7.9,8.1-11.8,12.2c-0.9,1-1.8,1.7-2.6,2.3l-40.7,40.9c-2.7,4.1-6.4,7.8-10.5,10.5
	l-40.7,40.9c-1.2,1.4-2.9,3.2-5.1,5.4c-3.6,3.7-6.4,6.6-8.7,8.5l0,0c-7.5,6.4-9.7,3.1-19-10.8
	C640.8,1081.5,621.7,1000.7,628.8,914.2z M1396.6,1466.6c-6.6,1.4-13,1.5-19.6,1.5c-125.6,0-251.2,0-376.8,0
	c-125.6,0-251.2,0-376.8,0c-31.2,0-53-14-64.5-41.7c-11.9-28.6-7.8-54.9,13.9-77c68.1-69,136.8-137.5,205.2-206.3
	c44.4-44.7,88.5-89.6,132.8-134.4c14.2-14.4,13.4-13.5,24.1,0c0.9,1.2,2.1,2.2,3.2,3.3c13.8,13.3,13.8,13.3-0.1,27.4
	C828.3,1150,718.6,1260.6,609,1371.2c-2.7,2.7-5.6,5.4-7.8,8.5c-12.6,17.2-5.9,39,14.1,46.3c6.2,2.3,12.7,2.9,19.4,2.9
	c243.8-0.1,487.7,0,731.6-0.1c5,0,10.1-0.2,14.9-1.5c25.5-6.7,33.1-31.8,15.1-51.2c-14.7-15.9-30.3-30.9-45.5-46.3
	c-45.5-45.9-91.1-91.7-136.6-137.6c-11.9-12-23.8-24-35.8-36c-2.9-2.9-5.8-5.9-8.7-8.8c-37.3-37.7-74.5-75.4-112.1-112.9
	c-7.2-7.2-9.5-12.6,0.6-18.7c3.2-1.9,5.8-5.1,8.4-7.9c10.8-11.6,10.8-11.7,21.6-0.8c112.4,113.2,224.5,226.9,337.5,339.5
	C1470,1390.8,1439.9,1457.5,1396.6,1466.6z"/>
<path class="st16" d="M768.4,723.9c-36.5,0-66,29.5-66,66c0,36.5,29.5,66,66,66s66-29.5,66-66C834.4,753.5,804.8,723.9,768.4,723.9z M768.4,831.5
	c-22.9,0-41.5-18.6-41.5-41.5c0-22.9,18.6-41.5,41.5-41.5s41.5,18.6,41.5,41.5C809.9,812.9,791.3,831.5,768.4,831.5z"/>
<path class="st16" d="M805.7,890.9c-36.5,0-66,29.5-66,66c0,36.5,29.5,66,66,66s66-29.5,66-66C871.7,920.5,842.2,890.9,805.7,890.9z M805.7,998.5
	c-22.9,0-41.5-18.6-41.5-41.5c0-22.9,18.6-41.5,41.5-41.5s41.5,18.6,41.5,41.5C847.3,979.9,828.7,998.5,805.7,998.5z"/>
<path class="st16" d="M1139.3,1028.1c0.7,1.5,1.4,3,2.3,4.4c0.3,0.4,0.6,0.9,0.9,1.3c1.6,1.7,3.2,3.4,4.8,5.1c1.5-21.6,19.5-38.6,41.4-38.6
	c22.9,0,41.5,18.6,41.5,41.5c0,1.6-0.1,3.2-0.3,4.8c6-1.8,12.3-2.7,18.9-2.7c2,0,3.9,0.1,5.8,0.3c0-0.8,0-1.5,0-2.3
	c0-36.5-29.6-66-66-66c-28.2,0-52.2,17.7-61.7,42.5C1132.3,1019.9,1137,1023.2,1139.3,1028.1z"/>
<path class="st16" d="M1254.7,1044.1c-1.9-0.2-3.9-0.3-5.8-0.3c-6.6,0-12.9,1-18.9,2.7c-17.1,5.1-31.3,17-39.5,32.5c3.5,3.8,6.9,7.8,10.2,11.7
	c2.6,3.2,5.2,6.5,7.7,9.7c4.2-18.5,20.7-32.3,40.5-32.3h0.3c22.8,0.2,41.2,18.7,41.2,41.5c0,17.5-10.8,32.5-26.2,38.6
	c0.5,0.5,0.9,1.1,1.4,1.6c4.7,5.8,9.2,11.9,12.2,18.8c0,0.1,0.1,0.2,0.1,0.3c21.9-10.7,37-33.2,37-59.3
	C1314.8,1075.3,1288.4,1047,1254.7,1044.1z"/>
<path class="st16" d="M1218.4,1224.9c-4.8-4.7-9.2-9.7-13.5-14.8c-4.6,17.9-20.9,31.1-40.2,31.1c-14,0-26.3-6.9-33.8-17.4
	c0.3-2.4,0.4-4.8,0.4-7.2c0-7.9-1.4-15.5-3.9-22.5c-0.7-2-1.6-4-2.5-6c3.8-13.1,13.9-23.5,26.7-27.8c-2.9-2.8-5.7-5.6-8.6-8.4
	c-3.4-3.3-6.7-6.7-10.1-10c-10.4,5.7-19,14.1-25,24.3c-10.3-8.8-23.4-14.4-37.8-15.4c-3.1-5.8-4.8-12.4-4.8-19.4
	c0-15,8-28.2,20-35.5c-6.2-5.7-12.4-11.3-18.8-16.7c-15.6,12.1-25.7,31-25.7,52.2c0,7.9,1.4,15.5,3.9,22.5
	c-11.1,3.6-20.9,10.1-28.5,18.6c-0.3,3.2-0.9,6.2-1.7,9.3c5.6,4,10.5,8.9,14.6,14.4c6-10.5,16.4-18.2,28.8-20.4
	c2.4-0.4,4.8-0.6,7.3-0.6c14,0,26.3,6.9,33.8,17.4c1.1,1.5,2,3,2.9,4.7c3.1,5.8,4.8,12.4,4.8,19.4c0,4-0.6,7.9-1.6,11.6
	c-5,17.3-21,29.9-39.9,29.9c-9.3,0-17.9-3.1-24.8-8.2c-1.9,8.3-5.3,16-10,22.8c10.1,6.3,22,9.9,34.8,9.9c24.2,0,45.4-13,56.9-32.5
	c11.5,9.7,26.4,15.6,42.6,15.6c26,0,48.5-15.1,59.3-36.9C1221.9,1227.8,1220,1226.5,1218.4,1224.9z"/>
<path class="st16" d="M739.7,1021.6c-36.5,0-66,29.5-66,66c0,36.5,29.5,66,66,66s66-29.5,66-66C805.7,1051.1,776.2,1021.6,739.7,1021.6z
	 M739.7,1129.1c-22.9,0-41.5-18.6-41.5-41.5c0-22.9,18.6-41.5,41.5-41.5s41.5,18.6,41.5,41.5
	C781.3,1110.5,762.7,1129.1,739.7,1129.1z"/>
<path class="st16" d="M1029.1,1196c-4.1-5.5-9-10.4-14.6-14.4c0.8-3,1.4-6.1,1.7-9.3c0.3-2.4,0.4-4.8,0.4-7.3c0-36.5-29.5-66-66-66
	c-31.9,0-58.5,22.6-64.7,52.6c-30.6,5.8-53.7,32.6-53.7,64.9c0,36.5,29.5,66,66,66c9.5,0,18.5-2,26.6-5.6
	c12.1,14.8,30.5,24.3,51.1,24.3c22.6,0,42.5-11.3,54.4-28.6c4.7-6.8,8.1-14.5,10-22.8c1.1-4.7,1.6-9.6,1.6-14.6
	C1042,1220.6,1037.2,1207,1029.1,1196z M950.6,1123.5c22.9,0,41.5,18.6,41.5,41.5c0,2.1-0.2,4.1-0.4,6.1c-5-1.2-10.3-1.9-15.7-1.9
	c-9.5,0-18.5,2-26.6,5.6c-9.5-11.6-22.9-20-38.2-23C916.7,1135.4,932.3,1123.5,950.6,1123.5z M937.6,1229.8c-0.8,2.5-1.9,4.8-3.1,7
	c-4.7,8.4-12.3,15-21.4,18.5c-4.6,1.8-9.6,2.8-14.9,2.8c-22.9,0-41.5-18.6-41.5-41.5c0-18.5,12.2-34.3,28.9-39.6c4-1.3,8.2-2,12.6-2
	c4.4,0,8.6,0.7,12.5,1.9c7.1,2.3,13.5,6.4,18.3,11.8c4.1,4.5,7.1,9.9,8.9,15.9c1,3.3,1.6,6.7,1.7,10.3c0,0.5,0,1.1,0,1.6
	C939.8,1221.2,939,1225.7,937.6,1229.8z M1012.1,1255.8c-7.1,12.5-20.6,21-36.1,21c-12.3,0-23.3-5.3-30.9-13.8
	c8.8-8.9,15.2-20.3,17.8-33.1c0.9-4.3,1.3-8.8,1.3-13.4c0-4.1-0.4-8.1-1.1-11.9c-0.5-2.8-1.2-5.5-2-8.2c4.6-1.8,9.6-2.8,14.9-2.8
	c1.5,0,3,0.1,4.4,0.2c7.6,0.8,14.6,3.7,20.4,8c1,0.7,1.9,1.5,2.8,2.3c8.5,7.6,13.9,18.7,13.9,31
	C1017.5,1242.7,1015.6,1249.8,1012.1,1255.8z"/>
</svg>
